<svg width="20" height="21" viewBox="0 0 20 21" fill="none" xmlns="http://www.w3.org/2000/svg">
<g id="Frame" clip-path="url(#clip0_43_584)">
<path id="Vector" d="M3.33331 7.42111C3.33331 6.5299 3.6845 5.67519 4.30962 5.04501C4.93474 4.41482 5.78259 4.06079 6.66665 4.06079H13.3333C14.2174 4.06079 15.0652 4.41482 15.6903 5.04501C16.3155 5.67519 16.6666 6.5299 16.6666 7.42111V14.1418C16.6666 15.033 16.3155 15.8877 15.6903 16.5179C15.0652 17.1481 14.2174 17.5021 13.3333 17.5021H6.66665C5.78259 17.5021 4.93474 17.1481 4.30962 16.5179C3.6845 15.8877 3.33331 15.033 3.33331 14.1418V7.42111Z" stroke="white" stroke-width="2.08333" stroke-linecap="round" stroke-linejoin="round"/>
<path id="Vector_2" d="M7.5 10.7815C7.5 11.4499 7.76339 12.0909 8.23223 12.5636C8.70107 13.0362 9.33696 13.3017 10 13.3017C10.663 13.3017 11.2989 13.0362 11.7678 12.5636C12.2366 12.0909 12.5 11.4499 12.5 10.7815C12.5 10.1131 12.2366 9.47203 11.7678 8.99939C11.2989 8.52675 10.663 8.26123 10 8.26123C9.33696 8.26123 8.70107 8.52675 8.23223 8.99939C7.76339 9.47203 7.5 10.1131 7.5 10.7815Z" stroke="white" stroke-width="2.08333" stroke-linecap="round" stroke-linejoin="round"/>
<path id="Vector_3" d="M13.75 7.00098V7.00857" stroke="white" stroke-width="2.08333" stroke-linecap="round" stroke-linejoin="round"/>
</g>
<defs>
<clipPath id="clip0_43_584">
<rect width="20" height="20.1619" fill="white" transform="translate(0 0.700439)"/>
</clipPath>
</defs>
</svg>
