<svg width="53" height="51" viewBox="0 0 53 51" fill="none" xmlns="http://www.w3.org/2000/svg">
<g clip-path="url(#clip0_2_52)">
<path d="M8.83331 40.375C8.83331 41.5022 9.29864 42.5832 10.1269 43.3802C10.9552 44.1772 12.0786 44.625 13.25 44.625C14.4214 44.625 15.5447 44.1772 16.373 43.3802C17.2013 42.5832 17.6666 41.5022 17.6666 40.375C17.6666 39.2478 17.2013 38.1668 16.373 37.3698C15.5447 36.5728 14.4214 36.125 13.25 36.125C12.0786 36.125 10.9552 36.5728 10.1269 37.3698C9.29864 38.1668 8.83331 39.2478 8.83331 40.375Z" stroke="white" stroke-width="4" stroke-linecap="round" stroke-linejoin="round"/>
<path d="M33.125 40.375C33.125 41.5022 33.5903 42.5832 34.4186 43.3802C35.2469 44.1772 36.3703 44.625 37.5417 44.625C38.713 44.625 39.8364 44.1772 40.6647 43.3802C41.493 42.5832 41.9583 41.5022 41.9583 40.375C41.9583 39.2478 41.493 38.1668 40.6647 37.3698C39.8364 36.5728 38.713 36.125 37.5417 36.125C36.3703 36.125 35.2469 36.5728 34.4186 37.3698C33.5903 38.1668 33.125 39.2478 33.125 40.375Z" stroke="white" stroke-width="4" stroke-linecap="round" stroke-linejoin="round"/>
<path d="M37.5416 36.125H13.25V6.375H8.83331" stroke="white" stroke-width="4" stroke-linecap="round" stroke-linejoin="round"/>
<path d="M13.25 10.625L44.1667 12.75L41.9583 27.625H13.25" stroke="white" stroke-width="4" stroke-linecap="round" stroke-linejoin="round"/>
</g>
<defs>
<clipPath id="clip0_2_52">
<rect width="53" height="51" fill="white"/>
</clipPath>
</defs>
</svg>

