<svg width="200" height="200" viewBox="0 0 200 200" fill="none" xmlns="http://www.w3.org/2000/svg">
<circle cx="100" cy="100" r="100" fill="#D9D9D9"/>
<g clip-path="url(#clip0_0_1)">
<path d="M75 68.75C75 75.3804 77.6339 81.7393 82.3223 86.4277C87.0107 91.1161 93.3696 93.75 100 93.75C106.63 93.75 112.989 91.1161 117.678 86.4277C122.366 81.7393 125 75.3804 125 68.75C125 62.1196 122.366 55.7607 117.678 51.0723C112.989 46.3839 106.63 43.75 100 43.75C93.3696 43.75 87.0107 46.3839 82.3223 51.0723C77.6339 55.7607 75 62.1196 75 68.75Z" stroke="#000035" stroke-width="8.33333" stroke-linecap="round" stroke-linejoin="round"/>
<path d="M62.5 156.25V143.75C62.5 137.12 65.1339 130.761 69.8223 126.072C74.5107 121.384 80.8696 118.75 87.5 118.75H112.5C119.13 118.75 125.489 121.384 130.178 126.072C134.866 130.761 137.5 137.12 137.5 143.75V156.25" stroke="#000035" stroke-width="8.33333" stroke-linecap="round" stroke-linejoin="round"/>
</g>
<defs>
<clipPath id="clip0_0_1">
<rect width="150" height="150" fill="white" transform="translate(25 25)"/>
</clipPath>
</defs>
</svg>

